<svg width="114" height="112" viewBox="0 0 114 112" fill="none" xmlns="http://www.w3.org/2000/svg">
<path d="M28 15.4545L20.2727 62H14.6364L21.3636 21.3636H21.0909L8.45455 28.9091L9.45455 23.1818L22.3636 15.4545H28ZM48.75 62.6364C45.3258 62.6364 42.5682 61.7045 40.4773 59.8409C38.3864 57.9621 37.0076 55.2424 36.3409 51.6818C35.6742 48.1061 35.75 43.7879 36.5682 38.7273C37.3864 33.697 38.7273 29.4015 40.5909 25.8409C42.4545 22.2652 44.75 19.5379 47.4773 17.6591C50.2045 15.7651 53.2652 14.8182 56.6591 14.8182C60.053 14.8182 62.803 15.7651 64.9091 17.6591C67.0303 19.553 68.4394 22.2803 69.1364 25.8409C69.8485 29.4015 69.7803 33.697 68.9318 38.7273C68.0833 43.7879 66.7273 48.0985 64.8636 51.6591C63 55.2197 60.7045 57.9394 57.9773 59.8182C55.25 61.697 52.1742 62.6364 48.75 62.6364ZM49.5682 57.6364C52.9773 57.6364 55.8939 56 58.3182 52.7273C60.7576 49.4394 62.4773 44.7727 63.4773 38.7273C64.1439 34.697 64.2803 31.2652 63.8864 28.4318C63.4924 25.5985 62.6136 23.4394 61.25 21.9545C59.8864 20.4697 58.0833 19.7273 55.8409 19.7273C52.4773 19.7273 49.5833 21.3864 47.1591 24.7045C44.7348 28.0076 43.0227 32.6818 42.0227 38.7273C41.3561 42.7576 41.2121 46.1818 41.5909 49C41.9697 51.8182 42.8333 53.9621 44.1818 55.4318C45.5303 56.9015 47.3258 57.6364 49.5682 57.6364ZM88.75 62.6364C85.3258 62.6364 82.5682 61.7045 80.4773 59.8409C78.3864 57.9621 77.0076 55.2424 76.3409 51.6818C75.6742 48.1061 75.75 43.7879 76.5682 38.7273C77.3864 33.697 78.7273 29.4015 80.5909 25.8409C82.4545 22.2652 84.75 19.5379 87.4773 17.6591C90.2045 15.7651 93.2652 14.8182 96.6591 14.8182C100.053 14.8182 102.803 15.7651 104.909 17.6591C107.03 19.553 108.439 22.2803 109.136 25.8409C109.848 29.4015 109.78 33.697 108.932 38.7273C108.083 43.7879 106.727 48.0985 104.864 51.6591C103 55.2197 100.705 57.9394 97.9773 59.8182C95.25 61.697 92.1742 62.6364 88.75 62.6364ZM89.5682 57.6364C92.9773 57.6364 95.8939 56 98.3182 52.7273C100.758 49.4394 102.477 44.7727 103.477 38.7273C104.144 34.697 104.28 31.2652 103.886 28.4318C103.492 25.5985 102.614 23.4394 101.25 21.9545C99.8864 20.4697 98.0833 19.7273 95.8409 19.7273C92.4773 19.7273 89.5833 21.3864 87.1591 24.7045C84.7348 28.0076 83.0227 32.6818 82.0227 38.7273C81.3561 42.7576 81.2121 46.1818 81.5909 49C81.9697 51.8182 82.8333 53.9621 84.1818 55.4318C85.5303 56.9015 87.3258 57.6364 89.5682 57.6364Z" fill="#F9B701"/>
<path d="M1.99992 86.9082L19.202 81.1286C33.5256 76.3161 48.4362 73.4706 63.5254 72.67V72.67C73.4069 72.1456 83.3155 72.5009 93.1341 73.7316L111.853 76.0779" stroke="#F9B701" stroke-width="3" stroke-linecap="round"/>
<path d="M30.7407 92.9244V92.9244C40.176 88.9721 50.0625 86.1982 60.1766 84.6652L61.2764 84.4986C72.6803 82.7701 84.2602 82.5274 95.7266 83.7765L111.994 85.5486" stroke="#F9B701" stroke-width="3" stroke-linecap="round"/>
</svg>
