<svg width="321" height="281" viewBox="0 0 321 281" fill="none" xmlns="http://www.w3.org/2000/svg">
<path d="M0.983724 278C0.983724 279.473 2.17763 280.667 3.65039 280.667C5.12315 280.667 6.31706 279.473 6.31706 278C6.31706 276.527 5.12315 275.333 3.65039 275.333C2.17763 275.333 0.983724 276.527 0.983724 278ZM314.84 3C314.84 4.47276 316.034 5.66667 317.507 5.66667C318.979 5.66667 320.173 4.47276 320.173 3C320.173 1.52724 318.979 0.333333 317.507 0.333333C316.034 0.333333 314.84 1.52724 314.84 3ZM4.15039 278V276.008H3.15039V278H4.15039ZM4.15039 272.023V268.039H3.15039V272.023H4.15039ZM4.15039 264.055V260.07H3.15039V264.055H4.15039ZM4.15039 256.086V252.102H3.15039V256.086H4.15039ZM4.15039 248.117V244.133H3.15039V248.117H4.15039ZM4.15039 240.148V236.164H3.15039V240.148H4.15039ZM4.15039 232.18V228.195H3.15039V232.18H4.15039ZM4.15039 224.211V220.227H3.15039V224.211H4.15039ZM4.15039 216.242V212.258H3.15039V216.242H4.15039ZM4.15039 208.273V204.289H3.15039V208.273H4.15039ZM4.15039 200.305V196.32H3.15039V200.305H4.15039ZM4.15039 192.336V188.352H3.15039V192.336H4.15039ZM4.15039 184.367V180.383H3.15039V184.367H4.15039ZM4.15039 176.398V172.414H3.15039V176.398H4.15039ZM4.15039 168.43V164.445H3.15039V168.43H4.15039ZM4.15039 160.461V156.477H3.15039V160.461H4.15039ZM4.15039 152.492V148.508H3.15039V152.492H4.15039ZM4.15039 144.523V140.539H3.15039V144.523H4.15039ZM4.15039 136.555V132.57H3.15039V136.555H4.15039ZM4.15039 128.586V124.602H3.15039V128.586H4.15039ZM4.15039 120.617V116.633H3.15039V120.617H4.15039ZM4.15039 112.648V108.664H3.15039V112.648H4.15039ZM4.15039 104.68V100.695H3.15039V104.68H4.15039ZM4.15039 96.7109V92.7266H3.15039V96.7109H4.15039ZM4.15039 88.7422V84.7578H3.15039V88.7422H4.15039ZM4.15039 80.7734V76.7891H3.15039V80.7734H4.15039ZM4.15039 72.8047V68.8203H3.15039V72.8047H4.15039ZM4.15039 64.8359V60.8516H3.15039V64.8359H4.15039ZM4.15039 56.8672V52.8828H3.15039V56.8672H4.15039ZM4.15039 48.8984V44.9141H3.15039V48.8984H4.15039ZM4.15039 40.9297V36.9453H3.15039V40.9297H4.15039ZM4.15039 32.9609V28.9766H3.15039V32.9609H4.15039ZM4.15039 24.9922V23H3.15039V24.9922H4.15039ZM4.15039 23C4.15039 22.3545 4.18174 21.7165 4.24297 21.0873L3.24767 20.9905C3.18331 21.6517 3.15039 22.3221 3.15039 23H4.15039ZM4.98518 17.3373C5.35873 16.1043 5.85116 14.923 6.44917 13.8065L5.56765 13.3343C4.93888 14.5082 4.42102 15.7506 4.02814 17.0474L4.98518 17.3373ZM8.57592 10.6293C9.38683 9.64238 10.2928 8.73644 11.2797 7.92552L10.6449 7.15287C9.60763 8.00513 8.65552 8.95723 7.80326 9.99452L8.57592 10.6293ZM14.4569 5.79878C15.5734 5.20076 16.7547 4.70834 17.9877 4.33478L17.6978 3.37774C16.401 3.77063 15.1586 4.28849 13.9847 4.91726L14.4569 5.79878ZM21.7377 3.59258C22.3669 3.53135 23.0049 3.5 23.6504 3.5V2.5C22.9725 2.5 22.3021 2.53292 21.6409 2.59728L21.7377 3.59258ZM23.6504 3.5H25.6359V2.5H23.6504V3.5ZM29.6069 3.5H33.578V2.5H29.6069V3.5ZM37.549 3.5H41.52V2.5H37.549V3.5ZM45.4911 3.5H49.4621V2.5H45.4911V3.5ZM53.4331 3.5H57.4041V2.5H53.4331V3.5ZM61.3752 3.5H65.3462V2.5H61.3752V3.5ZM69.3172 3.5H73.2882V2.5H69.3172V3.5ZM77.2593 3.5H81.2303V2.5H77.2593V3.5ZM85.2013 3.5H89.1724V2.5H85.2013V3.5ZM93.1434 3.5H97.1144V2.5H93.1434V3.5ZM101.085 3.5H105.056V2.5H101.085V3.5ZM109.028 3.5H112.999V2.5H109.028V3.5ZM116.97 3.5H120.941V2.5H116.97V3.5ZM124.912 3.5H128.883V2.5H124.912V3.5ZM132.854 3.5H136.825V2.5H132.854V3.5ZM140.796 3.5H144.767V2.5H140.796V3.5ZM148.738 3.5H152.709V2.5H148.738V3.5ZM156.68 3.5H160.651V2.5H156.68V3.5ZM164.622 3.5H168.593V2.5H164.622V3.5ZM172.564 3.5H176.535V2.5H172.564V3.5ZM180.506 3.5H184.477V2.5H180.506V3.5ZM188.448 3.5H192.419V2.5H188.448V3.5ZM196.39 3.5H200.361V2.5H196.39V3.5ZM204.332 3.5H208.303V2.5H204.332V3.5ZM212.274 3.5H216.245V2.5H212.274V3.5ZM220.216 3.5H224.187V2.5H220.216V3.5ZM228.158 3.5H232.129V2.5H228.158V3.5ZM236.1 3.5H240.071V2.5H236.1V3.5ZM244.042 3.5H248.013V2.5H244.042V3.5ZM251.984 3.5H255.955V2.5H251.984V3.5ZM259.926 3.5H263.898V2.5H259.926V3.5ZM267.869 3.5H271.84V2.5H267.869V3.5ZM275.811 3.5H279.782V2.5H275.811V3.5ZM283.753 3.5H287.724V2.5H283.753V3.5ZM291.695 3.5H295.666V2.5H291.695V3.5ZM299.637 3.5H303.608V2.5H299.637V3.5ZM307.579 3.5H311.55V2.5H307.579V3.5ZM315.521 3.5H317.507V2.5H315.521V3.5Z" fill="#0A1C2A"/>
</svg>
