<svg width="24" height="24" viewBox="0 0 24 24" fill="none" xmlns="http://www.w3.org/2000/svg">
<path d="M16.2099 7.99993H7.78995C7.45753 7.99945 7.13178 8.09311 6.85039 8.27009C6.56901 8.44706 6.34349 8.7001 6.19995 8.99993C6.03191 9.35567 5.9672 9.75146 6.01316 10.1422C6.05913 10.5329 6.21394 10.9029 6.45995 11.2099L10.6699 16.3099C10.8352 16.5006 11.0394 16.6534 11.2689 16.7582C11.4984 16.863 11.7477 16.9172 11.9999 16.9172C12.2522 16.9172 12.5015 16.863 12.731 16.7582C12.9605 16.6534 13.1647 16.5006 13.3299 16.3099L17.5399 11.2099C17.786 10.9029 17.9408 10.5329 17.9867 10.1422C18.0327 9.75146 17.968 9.35567 17.7999 8.99993C17.6564 8.7001 17.4309 8.44706 17.1495 8.27009C16.8681 8.09311 16.5424 7.99945 16.2099 7.99993Z" fill="#F9B701"/>
</svg>
