<svg width="301" height="275" viewBox="0 0 301 275" fill="none" xmlns="http://www.w3.org/2000/svg">
<path d="M148.666 15.8619C114.315 4.59332 92.0413 29.1115 85.1875 45.8196L83.948 49.9151C86.6051 85.407 50.5186 98.3557 31.3289 99.7113C1.80617 105.922 1.56014 136.189 6.23457 149.252C13.7754 170.325 21.2419 185.114 22.8411 191.768C21.0697 225.19 24.5632 238.968 26.5314 241.679C47.7878 280.129 85.5769 271.256 101.814 262.013C130.156 240.422 152.987 242.172 160.86 245.746C189.202 265.858 214.739 267.189 223.965 265.34C268.506 250.466 264.225 216.053 255.18 197.459C253.909 194.846 252.556 192.257 251.71 189.477C241.885 157.205 258.841 126.067 268.987 114.13C298.509 68.8776 283.01 41.5439 271.57 33.5336C255 20.5 225.072 32.9174 205.882 42.0369C194.937 45.2966 174.904 33.5128 163.456 24.7726L163.378 24.7131C158.802 21.2189 154.136 17.6563 148.666 15.8619Z" fill="#F9B701"/>
<path d="M162.761 10.3529C122.271 -8.6981 91.5 26.5 88.3543 38.0966C87.5032 40.9089 87.2487 43.8723 87.2022 46.8103C86.6763 80.0683 50.7064 89.6905 32.3949 94.0852C1.72059 100.538 1.46496 131.982 6.32173 145.554C11.5932 160.284 16.8298 172.058 20.1981 180.292C22.7177 186.45 23.3474 193.109 23.1751 199.761C22.4625 227.258 25.5748 239.049 27.4103 241.577C49.4958 281.523 88.7589 272.304 105.63 262.702C120.463 251.403 133.844 246.257 144.517 244.406C159.459 241.816 172.897 250.888 186.637 257.307C207.72 267.158 225.161 267.638 232.545 266.159C282.237 249.566 269.559 209.5 262.836 191.645C249.646 156.616 268.331 121.996 279.323 109.065C309.997 62.0518 293 35 282.007 25.3325C263.348 10.3812 239.72 21.4855 220.699 30.7938C216.081 33.0535 211.159 35.2237 206.104 34.292C190.958 31.5008 169.283 14.2695 162.761 10.3529Z" stroke="#F9B701" strokeWidth="8"/>
<path d="M135.338 164.933V163.548C135.374 157.121 135.977 152.007 137.149 148.207C138.357 144.408 140.061 141.354 142.263 139.045C144.464 136.702 147.146 134.553 150.306 132.6C152.472 131.251 154.408 129.777 156.112 128.179C157.852 126.545 159.219 124.734 160.214 122.746C161.208 120.722 161.705 118.467 161.705 115.981C161.705 113.175 161.048 110.743 159.734 108.683C158.42 106.624 156.645 105.026 154.408 103.889C152.206 102.753 149.738 102.185 147.004 102.185C144.482 102.185 142.085 102.735 139.812 103.836C137.575 104.901 135.711 106.535 134.219 108.737C132.763 110.903 131.947 113.655 131.769 116.993H112.806C112.984 110.246 114.617 104.599 117.707 100.054C120.832 95.5085 124.951 92.0994 130.065 89.8267C135.214 87.554 140.896 86.4176 147.11 86.4176C153.893 86.4176 159.859 87.6072 165.008 89.9865C170.192 92.3658 174.223 95.7571 177.099 100.161C180.011 104.528 181.467 109.713 181.467 115.714C181.467 119.763 180.81 123.385 179.496 126.581C178.218 129.777 176.389 132.618 174.01 135.104C171.631 137.589 168.808 139.809 165.54 141.762C162.664 143.538 160.303 145.384 158.456 147.302C156.645 149.219 155.295 151.474 154.408 154.067C153.555 156.624 153.112 159.784 153.076 163.548V164.933H135.338ZM144.607 198.172C141.411 198.172 138.658 197.036 136.35 194.763C134.042 192.49 132.888 189.72 132.888 186.453C132.888 183.257 134.042 180.523 136.35 178.25C138.658 175.977 141.411 174.841 144.607 174.841C147.767 174.841 150.501 175.977 152.81 178.25C155.153 180.523 156.325 183.257 156.325 186.453C156.325 188.619 155.775 190.59 154.674 192.366C153.609 194.141 152.188 195.562 150.413 196.627C148.673 197.657 146.737 198.172 144.607 198.172Z" fill="white"/>
</svg>
