<svg width="24" height="24" viewBox="0 0 24 24" fill="none" xmlns="http://www.w3.org/2000/svg">
<path fillRule="evenodd" clipRule="evenodd" d="M1.65404 13.014C1.89554 14.5431 2.67488 15.9359 3.8518 16.9416C5.02873 17.9473 6.52595 18.4999 8.07404 18.5H15.926C17.6499 18.5 19.3032 17.8152 20.5222 16.5962C21.7412 15.3772 22.426 13.7239 22.426 12C22.426 10.2761 21.7412 8.62279 20.5222 7.40381C19.3032 6.18482 17.6499 5.5 15.926 5.5H8.07404C7.13473 5.50006 6.20659 5.7037 5.35354 6.0969C4.50048 6.4901 3.74278 7.06352 3.13262 7.77766C2.52245 8.4918 2.07431 9.32971 1.81906 10.2337C1.56381 11.1376 1.50751 12.0862 1.65404 13.014ZM16 15.5C16.4895 15.4983 16.9731 15.3938 17.4197 15.1934C17.8662 14.9929 18.2657 14.7009 18.5922 14.3363C18.9187 13.9717 19.1651 13.5426 19.3153 13.0767C19.4654 12.6109 19.5161 12.1187 19.464 11.632C19.3743 10.7747 18.971 9.98086 18.3317 9.40279C17.6923 8.82471 16.862 8.50321 16 8.5C15.5106 8.5017 15.0269 8.60616 14.5804 8.80662C14.1339 9.00708 13.7344 9.29907 13.4079 9.66368C13.0813 10.0283 12.835 10.4574 12.6848 10.9233C12.5346 11.3891 12.484 11.8813 12.536 12.368C12.6258 13.2253 13.029 14.0191 13.6684 14.5972C14.3077 15.1753 15.1381 15.4968 16 15.5Z" fill="#0A1C2A"/>
</svg>
