<svg width="190" height="152" viewBox="0 0 190 152" fill="none" xmlns="http://www.w3.org/2000/svg">
<path d="M0.48942 146C0.48942 148.946 2.87724 151.333 5.82275 151.333C8.76827 151.333 11.1561 148.946 11.1561 146C11.1561 143.054 8.76827 140.667 5.82275 140.667C2.87724 140.667 0.48942 143.054 0.48942 146ZM179.262 6C179.262 8.94552 181.65 11.3333 184.595 11.3333C187.541 11.3333 189.929 8.94552 189.929 6C189.929 3.05448 187.541 0.666667 184.595 0.666667C181.65 0.666667 179.262 3.05448 179.262 6ZM6.82275 146V26H4.82275V146H6.82275ZM25.8228 7H184.595V5H25.8228V7ZM6.82275 26C6.82275 15.5066 15.3293 7 25.8228 7V5C14.2248 5 4.82275 14.402 4.82275 26H6.82275Z" fill="#F9B701"/>
</svg>
